<svg width="215" height="185" viewBox="0 0 215 185" fill="none" xmlns="http://www.w3.org/2000/svg">
<g clip-path="url(#clip0_0_313)">
<g filter="url(#filter0_d_0_313)">
<rect x="41" width="153" height="44" rx="4" fill="white"/>
</g>
<rect x="81" y="12" width="101" height="8" rx="4" fill="#F0F0F0"/>
<circle cx="63" cy="22" r="9.5" stroke="#E2E2E2"/>
<rect x="81" y="24" width="76" height="8" rx="4" fill="#F0F0F0"/>
<g filter="url(#filter1_d_0_313)">
<rect x="12" y="31" width="153" height="44" rx="4" fill="white"/>
</g>
<rect x="52" y="43" width="101" height="8" rx="4" fill="#F0F0F0"/>
<circle cx="34" cy="53" r="9.5" stroke="#E2E2E2"/>
<rect x="52" y="55" width="76" height="8" rx="4" fill="#F0F0F0"/>
<path fill-rule="evenodd" clip-rule="evenodd" d="M194 24C191.791 24 190 25.7909 190 28V41H178C175.791 41 174 42.7909 174 45C174 47.2091 175.791 49 178 49H190V60C190 62.2091 191.791 64 194 64C196.209 64 198 62.2091 198 60V49H210C212.209 49 214 47.2091 214 45C214 42.7909 212.209 41 210 41H198V28C198 25.7909 196.209 24 194 24Z" fill="#7EBB4F"/>
<path d="M84.0874 120.909H81.3324V129.142H81.2173L75.5668 120.909H73.1378V134H75.9055V125.761H76.0014L81.6967 134H84.0874V120.909ZM90.7591 134.192C93.7377 134.192 95.5914 132.153 95.5914 129.129C95.5914 126.087 93.7377 124.054 90.7591 124.054C87.7804 124.054 85.9267 126.087 85.9267 129.129C85.9267 132.153 87.7804 134.192 90.7591 134.192ZM90.7718 132.082C89.3975 132.082 88.6944 130.823 88.6944 129.11C88.6944 127.397 89.3975 126.131 90.7718 126.131C92.1206 126.131 92.8237 127.397 92.8237 129.11C92.8237 130.823 92.1206 132.082 90.7718 132.082ZM101.081 123.191H105.088V134H107.824V123.191H111.832V120.909H101.081V123.191ZM115.015 134.185C116.466 134.185 117.406 133.553 117.885 132.638H117.962V134H120.544V127.378C120.544 125.038 118.563 124.054 116.377 124.054C114.025 124.054 112.478 125.179 112.1 126.969L114.619 127.173C114.804 126.521 115.386 126.042 116.364 126.042C117.291 126.042 117.821 126.509 117.821 127.314V127.352C117.821 127.985 117.15 128.068 115.444 128.234C113.5 128.413 111.755 129.065 111.755 131.258C111.755 133.201 113.142 134.185 115.015 134.185ZM115.795 132.306C114.958 132.306 114.357 131.916 114.357 131.168C114.357 130.401 114.99 130.024 115.949 129.89C116.543 129.807 117.515 129.666 117.841 129.449V130.491C117.841 131.52 116.99 132.306 115.795 132.306ZM130.826 126.982C130.583 125.173 129.126 124.054 126.646 124.054C124.134 124.054 122.478 125.217 122.484 127.109C122.478 128.58 123.405 129.532 125.322 129.915L127.023 130.254C127.879 130.427 128.269 130.74 128.282 131.232C128.269 131.814 127.636 132.229 126.684 132.229C125.712 132.229 125.067 131.814 124.901 131.015L122.222 131.156C122.478 133.035 124.076 134.192 126.678 134.192C129.222 134.192 131.043 132.894 131.05 130.957C131.043 129.538 130.116 128.688 128.212 128.298L126.435 127.94C125.521 127.742 125.182 127.429 125.188 126.956C125.182 126.368 125.847 125.984 126.69 125.984C127.636 125.984 128.199 126.502 128.333 127.135L130.826 126.982ZM132.764 134H135.487V130.881L136.222 130.043L138.901 134H142.09L138.262 128.433L141.905 124.182H138.779L135.634 127.908H135.487V120.909H132.764V134Z" fill="#0B0A11"/>
<path d="M1.4146 162H7.3805V160.906H2.64755V151.818H1.4146V162ZM12.2328 162.159C14.301 162.159 15.693 160.588 15.693 158.222C15.693 155.835 14.301 154.264 12.2328 154.264C10.1646 154.264 8.77255 155.835 8.77255 158.222C8.77255 160.588 10.1646 162.159 12.2328 162.159ZM12.2328 161.105C10.6618 161.105 9.94585 159.753 9.94585 158.222C9.94585 156.69 10.6618 155.318 12.2328 155.318C13.8038 155.318 14.5197 156.69 14.5197 158.222C14.5197 159.753 13.8038 161.105 12.2328 161.105ZM20.5863 162.159C22.6545 162.159 24.0465 160.588 24.0465 158.222C24.0465 155.835 22.6545 154.264 20.5863 154.264C18.5181 154.264 17.1261 155.835 17.1261 158.222C17.1261 160.588 18.5181 162.159 20.5863 162.159ZM20.5863 161.105C19.0153 161.105 18.2994 159.753 18.2994 158.222C18.2994 156.69 19.0153 155.318 20.5863 155.318C22.1573 155.318 22.8732 156.69 22.8732 158.222C22.8732 159.753 22.1573 161.105 20.5863 161.105ZM25.8375 162H27.0108V159.141L27.8311 158.381L30.6898 162H32.1813L28.7161 157.625L31.9426 154.364H30.4909L27.15 157.764H27.0108V151.818H25.8375V162ZM38.8619 156.074C38.494 154.99 37.6687 154.264 36.1573 154.264C34.5465 154.264 33.3533 155.179 33.3533 156.472C33.3533 157.526 33.9798 158.232 35.3817 158.56L36.6545 158.858C37.4251 159.037 37.788 159.405 37.788 159.932C37.788 160.588 37.092 161.125 35.9982 161.125C35.0387 161.125 34.4371 160.712 34.2283 159.892L33.1147 160.17C33.3881 161.468 34.457 162.159 36.0181 162.159C37.793 162.159 39.0011 161.19 39.0011 159.872C39.0011 158.808 38.3349 158.137 36.9727 157.804L35.8391 157.526C34.9343 157.302 34.5266 156.999 34.5266 156.412C34.5266 155.756 35.2227 155.278 36.1573 155.278C37.1815 155.278 37.604 155.845 37.8079 156.372L38.8619 156.074ZM45.878 151.818H44.7047V162H45.878V151.818ZM48.027 162H49.2003V154.364H48.027V162ZM48.6236 153.091C49.081 153.091 49.4588 152.733 49.4588 152.295C49.4588 151.858 49.081 151.5 48.6236 151.5C48.1662 151.5 47.7884 151.858 47.7884 152.295C47.7884 152.733 48.1662 153.091 48.6236 153.091ZM51.3493 162H52.5225V159.141L53.3429 158.381L56.2015 162H57.693L54.2278 157.625L57.4544 154.364H56.0027L52.6618 157.764H52.5225V151.818H51.3493V162ZM61.8517 162.159C63.4029 162.159 64.5364 161.384 64.8944 160.23L63.7608 159.912C63.4625 160.707 62.7715 161.105 61.8517 161.105C60.4746 161.105 59.525 160.215 59.4703 158.58H65.0137V158.082C65.0137 155.239 63.3233 154.264 61.7324 154.264C59.6642 154.264 58.2921 155.895 58.2921 158.241C58.2921 160.588 59.6444 162.159 61.8517 162.159ZM59.4703 157.565C59.5499 156.377 60.3901 155.318 61.7324 155.318C63.0051 155.318 63.8205 156.273 63.8205 157.565H59.4703ZM71.4917 164.864C72.5506 164.864 73.2963 164.302 73.7388 163.114L76.9902 154.384L75.7076 154.364L73.5996 160.449H73.5201L71.4121 154.364H70.1394L72.9632 162.04L72.7445 162.636C72.3169 163.8 71.79 163.909 70.9348 163.69L70.6365 164.724C70.7559 164.784 71.0939 164.864 71.4917 164.864ZM81.3714 162.159C83.4396 162.159 84.8317 160.588 84.8317 158.222C84.8317 155.835 83.4396 154.264 81.3714 154.264C79.3033 154.264 77.9112 155.835 77.9112 158.222C77.9112 160.588 79.3033 162.159 81.3714 162.159ZM81.3714 161.105C79.8004 161.105 79.0845 159.753 79.0845 158.222C79.0845 156.69 79.8004 155.318 81.3714 155.318C82.9425 155.318 83.6584 156.69 83.6584 158.222C83.6584 159.753 82.9425 161.105 81.3714 161.105ZM91.4352 158.878C91.4352 160.31 90.3414 160.966 89.4664 160.966C88.492 160.966 87.796 160.25 87.796 159.136V154.364H86.6227V159.216C86.6227 161.165 87.6568 162.099 89.0886 162.099C90.242 162.099 90.9977 161.483 91.3556 160.707H91.4352V162H92.6085V154.364H91.4352V158.878ZM101.578 162.159C103.05 162.159 103.547 161.244 103.806 160.827H103.945V162H105.078V151.818H103.905V155.577H103.806C103.547 155.179 103.09 154.264 101.598 154.264C99.6694 154.264 98.337 155.795 98.337 158.202C98.337 160.628 99.6694 162.159 101.578 162.159ZM101.738 161.105C100.266 161.105 99.5103 159.812 99.5103 158.182C99.5103 156.571 100.246 155.318 101.738 155.318C103.169 155.318 103.925 156.472 103.925 158.182C103.925 159.912 103.15 161.105 101.738 161.105ZM110.493 162.159C112.561 162.159 113.953 160.588 113.953 158.222C113.953 155.835 112.561 154.264 110.493 154.264C108.424 154.264 107.032 155.835 107.032 158.222C107.032 160.588 108.424 162.159 110.493 162.159ZM110.493 161.105C108.922 161.105 108.206 159.753 108.206 158.222C108.206 156.69 108.922 155.318 110.493 155.318C112.064 155.318 112.779 156.69 112.779 158.222C112.779 159.753 112.064 161.105 110.493 161.105ZM116.917 157.406C116.917 156.074 117.742 155.318 118.866 155.318C119.955 155.318 120.616 156.029 120.616 157.227V162H121.789V157.148C121.789 155.199 120.75 154.264 119.204 154.264C118.051 154.264 117.335 154.781 116.977 155.557H116.877V154.364H115.744V162H116.917V157.406ZM124.967 151.818H123.854V152.733C123.854 153.469 123.496 154.105 123.078 154.702L123.714 155.219C124.51 154.582 124.967 153.528 124.967 152.713V151.818ZM130.043 154.364H128.413V152.534H127.239V154.364H126.086V155.358H127.239V160.131C127.239 161.463 128.313 162.099 129.308 162.099C129.745 162.099 130.023 162.02 130.183 161.96L129.944 160.906C129.844 160.926 129.685 160.966 129.427 160.966C128.91 160.966 128.413 160.807 128.413 159.812V155.358H130.043V154.364ZM136.919 157.406C136.919 156.074 137.769 155.318 138.928 155.318C140.031 155.318 140.697 156.014 140.697 157.227V162H141.871V157.148C141.871 155.184 140.827 154.264 139.266 154.264C138.062 154.264 137.376 154.766 137.018 155.557H136.919V151.818H135.746V162H136.919V157.406ZM146.264 162.179C147.597 162.179 148.293 161.463 148.531 160.966H148.591V162H149.764V156.969C149.764 154.543 147.915 154.264 146.941 154.264C145.787 154.264 144.475 154.662 143.878 156.054L144.992 156.452C145.25 155.895 145.862 155.298 146.98 155.298C148.059 155.298 148.591 155.87 148.591 156.849V156.889C148.591 157.456 148.014 157.406 146.622 157.585C145.205 157.769 143.659 158.082 143.659 159.832C143.659 161.324 144.813 162.179 146.264 162.179ZM146.443 161.125C145.509 161.125 144.833 160.707 144.833 159.892C144.833 158.997 145.648 158.719 146.563 158.599C147.06 158.54 148.392 158.401 148.591 158.162V159.236C148.591 160.19 147.835 161.125 146.443 161.125ZM157.877 154.364H156.604L154.496 160.449H154.417L152.309 154.364H151.036L153.86 162H155.053L157.877 154.364ZM162.354 162.159C163.905 162.159 165.038 161.384 165.396 160.23L164.263 159.912C163.964 160.707 163.273 161.105 162.354 161.105C160.977 161.105 160.027 160.215 159.972 158.58H165.516V158.082C165.516 155.239 163.825 154.264 162.234 154.264C160.166 154.264 158.794 155.895 158.794 158.241C158.794 160.588 160.146 162.159 162.354 162.159ZM159.972 157.565C160.052 156.377 160.892 155.318 162.234 155.318C163.507 155.318 164.322 156.273 164.322 157.565H159.972ZM173.485 162.179C174.817 162.179 175.513 161.463 175.752 160.966H175.812V162H176.985V156.969C176.985 154.543 175.136 154.264 174.161 154.264C173.008 154.264 171.695 154.662 171.099 156.054L172.212 156.452C172.471 155.895 173.082 155.298 174.201 155.298C175.28 155.298 175.812 155.87 175.812 156.849V156.889C175.812 157.456 175.235 157.406 173.843 157.585C172.426 157.769 170.88 158.082 170.88 159.832C170.88 161.324 172.033 162.179 173.485 162.179ZM173.664 161.125C172.729 161.125 172.053 160.707 172.053 159.892C172.053 158.997 172.869 158.719 173.783 158.599C174.281 158.54 175.613 158.401 175.812 158.162V159.236C175.812 160.19 175.056 161.125 173.664 161.125ZM186.385 154.364H184.754V152.534H183.581V154.364H182.428V155.358H183.581V160.131C183.581 161.463 184.655 162.099 185.649 162.099C186.087 162.099 186.365 162.02 186.524 161.96L186.286 160.906C186.186 160.926 186.027 160.966 185.769 160.966C185.252 160.966 184.754 160.807 184.754 159.812V155.358H186.385V154.364ZM190.397 162.179C191.73 162.179 192.426 161.463 192.664 160.966H192.724V162H193.897V156.969C193.897 154.543 192.048 154.264 191.073 154.264C189.92 154.264 188.607 154.662 188.011 156.054L189.124 156.452C189.383 155.895 189.994 155.298 191.113 155.298C192.192 155.298 192.724 155.87 192.724 156.849V156.889C192.724 157.456 192.147 157.406 190.755 157.585C189.338 157.769 187.792 158.082 187.792 159.832C187.792 161.324 188.945 162.179 190.397 162.179ZM190.576 161.125C189.642 161.125 188.965 160.707 188.965 159.892C188.965 158.997 189.781 158.719 190.695 158.599C191.193 158.54 192.525 158.401 192.724 158.162V159.236C192.724 160.19 191.968 161.125 190.576 161.125ZM201.448 156.074C201.08 154.99 200.255 154.264 198.743 154.264C197.132 154.264 195.939 155.179 195.939 156.472C195.939 157.526 196.566 158.232 197.968 158.56L199.24 158.858C200.011 159.037 200.374 159.405 200.374 159.932C200.374 160.588 199.678 161.125 198.584 161.125C197.625 161.125 197.023 160.712 196.814 159.892L195.701 160.17C195.974 161.468 197.043 162.159 198.604 162.159C200.379 162.159 201.587 161.19 201.587 159.872C201.587 158.808 200.921 158.137 199.559 157.804L198.425 157.526C197.52 157.302 197.113 156.999 197.113 156.412C197.113 155.756 197.809 155.278 198.743 155.278C199.767 155.278 200.19 155.845 200.394 156.372L201.448 156.074ZM203.353 162H204.526V159.141L205.347 158.381L208.205 162H209.697L206.232 157.625L209.458 154.364H208.007L204.666 157.764H204.526V151.818H203.353V162ZM212.718 160.608H211.446L211.386 161.165C211.242 162.512 210.958 163.854 210.829 164.486H211.724C211.963 163.81 212.47 162.278 212.639 161.145L212.718 160.608ZM55.8678 182.864H57.0411V178.827H57.1405C57.3991 179.244 57.8962 180.159 59.3678 180.159C61.2769 180.159 62.6093 178.628 62.6093 176.202C62.6093 173.795 61.2769 172.264 59.3479 172.264C57.8564 172.264 57.3991 173.179 57.1405 173.577H57.0013V172.364H55.8678V182.864ZM57.0212 176.182C57.0212 174.472 57.7769 173.318 59.2087 173.318C60.7002 173.318 61.436 174.571 61.436 176.182C61.436 177.812 60.6803 179.105 59.2087 179.105C57.7968 179.105 57.0212 177.912 57.0212 176.182ZM65.5724 169.818H64.3991V180H65.5724V169.818ZM70.923 180.159C72.4742 180.159 73.6077 179.384 73.9656 178.23L72.8321 177.912C72.5338 178.707 71.8428 179.105 70.923 179.105C69.5459 179.105 68.5963 178.215 68.5416 176.58H74.085V176.082C74.085 173.239 72.3946 172.264 70.8037 172.264C68.7355 172.264 67.3634 173.895 67.3634 176.241C67.3634 178.588 68.7156 180.159 70.923 180.159ZM68.5416 175.565C68.6212 174.377 69.4614 173.318 70.8037 173.318C72.0764 173.318 72.8918 174.273 72.8918 175.565H68.5416ZM78.1169 180.179C79.4493 180.179 80.1453 179.463 80.384 178.966H80.4436V180H81.6169V174.969C81.6169 172.543 79.7675 172.264 78.7931 172.264C77.6396 172.264 76.3271 172.662 75.7306 174.054L76.8442 174.452C77.1027 173.895 77.7142 173.298 78.8328 173.298C79.9117 173.298 80.4436 173.87 80.4436 174.849V174.889C80.4436 175.456 79.8669 175.406 78.4749 175.585C77.058 175.769 75.5118 176.082 75.5118 177.832C75.5118 179.324 76.6652 180.179 78.1169 180.179ZM78.2959 179.125C77.3612 179.125 76.6851 178.707 76.6851 177.892C76.6851 176.997 77.5004 176.719 78.4152 176.599C78.9124 176.54 80.2448 176.401 80.4436 176.162V177.236C80.4436 178.19 79.6879 179.125 78.2959 179.125ZM89.1675 174.074C88.7996 172.99 87.9743 172.264 86.463 172.264C84.8522 172.264 83.659 173.179 83.659 174.472C83.659 175.526 84.2854 176.232 85.6874 176.56L86.9601 176.858C87.7307 177.037 88.0937 177.405 88.0937 177.932C88.0937 178.588 87.3976 179.125 86.3039 179.125C85.3444 179.125 84.7428 178.712 84.534 177.892L83.4204 178.17C83.6938 179.468 84.7627 180.159 86.3238 180.159C88.0986 180.159 89.3067 179.19 89.3067 177.872C89.3067 176.808 88.6405 176.137 87.2783 175.804L86.1448 175.526C85.24 175.302 84.8323 174.999 84.8323 174.412C84.8323 173.756 85.5283 173.278 86.463 173.278C87.4871 173.278 87.9097 173.845 88.1135 174.372L89.1675 174.074ZM94.2746 180.159C95.8257 180.159 96.9593 179.384 97.3172 178.23L96.1837 177.912C95.8854 178.707 95.1943 179.105 94.2746 179.105C92.8975 179.105 91.9479 178.215 91.8932 176.58H97.4365V176.082C97.4365 173.239 95.7462 172.264 94.1553 172.264C92.0871 172.264 90.7149 173.895 90.7149 176.241C90.7149 178.588 92.0672 180.159 94.2746 180.159ZM91.8932 175.565C91.9727 174.377 92.8129 173.318 94.1553 173.318C95.428 173.318 96.2433 174.273 96.2433 175.565H91.8932ZM105.406 180.179C106.738 180.179 107.434 179.463 107.673 178.966H107.733V180H108.906V174.969C108.906 172.543 107.057 172.264 106.082 172.264C104.929 172.264 103.616 172.662 103.02 174.054L104.133 174.452C104.392 173.895 105.003 173.298 106.122 173.298C107.201 173.298 107.733 173.87 107.733 174.849V174.889C107.733 175.456 107.156 175.406 105.764 175.585C104.347 175.769 102.801 176.082 102.801 177.832C102.801 179.324 103.954 180.179 105.406 180.179ZM105.585 179.125C104.65 179.125 103.974 178.707 103.974 177.892C103.974 176.997 104.79 176.719 105.704 176.599C106.201 176.54 107.534 176.401 107.733 176.162V177.236C107.733 178.19 106.977 179.125 105.585 179.125ZM113.931 180.159C115.403 180.159 115.9 179.244 116.158 178.827H116.297V180H117.431V169.818H116.258V173.577H116.158C115.9 173.179 115.442 172.264 113.951 172.264C112.022 172.264 110.69 173.795 110.69 176.202C110.69 178.628 112.022 180.159 113.931 180.159ZM114.09 179.105C112.619 179.105 111.863 177.812 111.863 176.182C111.863 174.571 112.599 173.318 114.09 173.318C115.522 173.318 116.278 174.472 116.278 176.182C116.278 177.912 115.502 179.105 114.09 179.105ZM122.626 180.159C124.098 180.159 124.595 179.244 124.854 178.827H124.993V180H126.126V169.818H124.953V173.577H124.854C124.595 173.179 124.138 172.264 122.646 172.264C120.717 172.264 119.385 173.795 119.385 176.202C119.385 178.628 120.717 180.159 122.626 180.159ZM122.785 179.105C121.314 179.105 120.558 177.812 120.558 176.182C120.558 174.571 121.294 173.318 122.785 173.318C124.217 173.318 124.973 174.472 124.973 176.182C124.973 177.912 124.197 179.105 122.785 179.105ZM135.697 172.364H134.066V170.534H132.893V172.364H131.739V173.358H132.893V178.131C132.893 179.463 133.967 180.099 134.961 180.099C135.398 180.099 135.677 180.02 135.836 179.96L135.597 178.906C135.498 178.926 135.339 178.966 135.08 178.966C134.563 178.966 134.066 178.807 134.066 177.812V173.358H135.697V172.364ZM139.709 180.179C141.041 180.179 141.737 179.463 141.976 178.966H142.035V180H143.209V174.969C143.209 172.543 141.359 172.264 140.385 172.264C139.231 172.264 137.919 172.662 137.322 174.054L138.436 174.452C138.695 173.895 139.306 173.298 140.425 173.298C141.503 173.298 142.035 173.87 142.035 174.849V174.889C142.035 175.456 141.459 175.406 140.067 175.585C138.65 175.769 137.104 176.082 137.104 177.832C137.104 179.324 138.257 180.179 139.709 180.179ZM139.888 179.125C138.953 179.125 138.277 178.707 138.277 177.892C138.277 176.997 139.092 176.719 140.007 176.599C140.504 176.54 141.837 176.401 142.035 176.162V177.236C142.035 178.19 141.28 179.125 139.888 179.125ZM150.759 174.074C150.391 172.99 149.566 172.264 148.055 172.264C146.444 172.264 145.251 173.179 145.251 174.472C145.251 175.526 145.877 176.232 147.279 176.56L148.552 176.858C149.323 177.037 149.685 177.405 149.685 177.932C149.685 178.588 148.989 179.125 147.896 179.125C146.936 179.125 146.335 178.712 146.126 177.892L145.012 178.17C145.286 179.468 146.354 180.159 147.916 180.159C149.69 180.159 150.899 179.19 150.899 177.872C150.899 176.808 150.232 176.137 148.87 175.804L147.737 175.526C146.832 175.302 146.424 174.999 146.424 174.412C146.424 173.756 147.12 173.278 148.055 173.278C149.079 173.278 149.502 173.845 149.705 174.372L150.759 174.074ZM152.665 180H153.838V177.141L154.658 176.381L157.517 180H159.008L155.543 175.625L158.77 172.364H157.318L153.977 175.764H153.838V169.818H152.665V180Z" fill="#0B0A11" fill-opacity="0.7"/>
</g>
<defs>
<filter id="filter0_d_0_313" x="21" y="-10" width="193" height="84" filterUnits="userSpaceOnUse" color-interpolation-filters="sRGB">
<feFlood flood-opacity="0" result="BackgroundImageFix"/>
<feColorMatrix in="SourceAlpha" type="matrix" values="0 0 0 0 0 0 0 0 0 0 0 0 0 0 0 0 0 0 127 0" result="hardAlpha"/>
<feOffset dy="10"/>
<feGaussianBlur stdDeviation="10"/>
<feColorMatrix type="matrix" values="0 0 0 0 0 0 0 0 0 0 0 0 0 0 0 0 0 0 0.07 0"/>
<feBlend mode="normal" in2="BackgroundImageFix" result="effect1_dropShadow_0_313"/>
<feBlend mode="normal" in="SourceGraphic" in2="effect1_dropShadow_0_313" result="shape"/>
</filter>
<filter id="filter1_d_0_313" x="-8" y="21" width="193" height="84" filterUnits="userSpaceOnUse" color-interpolation-filters="sRGB">
<feFlood flood-opacity="0" result="BackgroundImageFix"/>
<feColorMatrix in="SourceAlpha" type="matrix" values="0 0 0 0 0 0 0 0 0 0 0 0 0 0 0 0 0 0 127 0" result="hardAlpha"/>
<feOffset dy="10"/>
<feGaussianBlur stdDeviation="10"/>
<feColorMatrix type="matrix" values="0 0 0 0 0 0 0 0 0 0 0 0 0 0 0 0 0 0 0.07 0"/>
<feBlend mode="normal" in2="BackgroundImageFix" result="effect1_dropShadow_0_313"/>
<feBlend mode="normal" in="SourceGraphic" in2="effect1_dropShadow_0_313" result="shape"/>
</filter>
<clipPath id="clip0_0_313">
<rect width="215" height="185" fill="white"/>
</clipPath>
</defs>
</svg>
