<svg width="105" height="27" viewBox="0 0 105 27" fill="none" xmlns="http://www.w3.org/2000/svg">
<path d="M12.9437 12.1083H8.62283L8.66041 21.8533C8.66041 22.3014 8.71676 22.6374 8.82949 22.8615C8.95474 23.0737 9.14258 23.2152 9.39306 23.2859C9.65607 23.3449 9.98798 23.3744 10.3887 23.3744H13V26.5578C12.7495 26.664 12.355 26.7642 11.8165 26.8585C11.2905 26.9528 10.5516 27 9.59972 27C7.89645 27 6.57514 26.7936 5.63583 26.381C4.70906 25.9683 4.06408 25.3906 3.70088 24.6477C3.33767 23.9049 3.15607 23.0442 3.15607 22.0656V12.1083H0V8.51804H3.34393L4.71532 3H8.62283V8.50037H12.9437V12.1083Z" fill="black"/>
<path fill-rule="evenodd" clip-rule="evenodd" d="M16.1024 26.3454C17.058 26.7818 18.1345 27 19.3319 27C20.6382 27 21.7691 26.7464 22.7246 26.2393C23.6923 25.7321 24.4966 24.8181 25.1377 23.4972L25.5731 26.6462H30V13.7849C30 12.5937 29.7399 11.5677 29.2199 10.7067C28.6998 9.83395 27.8591 9.16759 26.698 8.70765C25.5368 8.23587 23.9947 8 22.0715 8C20.5112 8 19.1142 8.21231 17.8805 8.63687C16.6588 9.04965 15.6912 9.68653 14.9776 10.5475C14.2639 11.3966 13.8709 12.4817 13.7983 13.8026H18.207C18.4611 12.9535 18.9328 12.3578 19.6222 12.0158C20.3237 11.6738 21.0615 11.4969 21.8356 11.4851C22.8879 11.4733 23.662 11.6974 24.158 12.1574C24.666 12.6055 24.92 13.2483 24.92 14.0857V15.1825L22.5795 15.2179C19.2654 15.2533 16.8403 15.7958 15.3042 16.8454C13.768 17.8833 13 19.4047 13 21.4097C13 22.6009 13.2782 23.6151 13.8346 24.4525C14.391 25.2781 15.1469 25.9091 16.1024 26.3454ZM22.5069 23.3557C22.0594 23.5208 21.5937 23.6034 21.1099 23.6034C20.2512 23.6034 19.5194 23.3675 18.9146 22.8957C18.3098 22.4122 18.0075 21.7458 18.0075 20.8967C18.0075 20.1536 18.2373 19.5639 18.6969 19.1276C19.1686 18.6912 19.7855 18.3787 20.5475 18.1899C21.3095 17.9894 22.132 17.8833 23.015 17.8715L24.92 17.8361V20.5428C24.92 20.932 24.8111 21.3094 24.5934 21.6751C24.3757 22.0407 24.0854 22.3709 23.7225 22.6657C23.3717 22.9488 22.9666 23.1788 22.5069 23.3557Z" fill="black"/>
<path d="M38.7833 27C37.4233 27 36.1137 26.7936 34.8543 26.3808C33.5952 25.9562 32.531 25.2958 31.6621 24.3994C30.7931 23.4913 30.2391 22.3178 30 20.879H34.7788C34.9424 21.5276 35.2385 22.0407 35.6666 22.4181C36.1075 22.7955 36.6048 23.0667 37.1588 23.2318C37.7128 23.3852 38.2418 23.4618 38.7454 23.4618C39.8033 23.4618 40.6531 23.3085 41.2955 23.0019C41.9505 22.6834 42.2776 22.1999 42.2776 21.5512C42.2776 21.0559 42.0827 20.6608 41.6922 20.3659C41.3143 20.0711 40.6848 19.847 39.8033 19.6937L36.3654 19.0214C34.6403 18.6794 33.2552 18.1015 32.2098 17.2877C31.1648 16.4621 30.6295 15.2946 30.6045 13.7849C30.6045 12.6881 30.9128 11.7033 31.5298 10.8306C32.1594 9.95781 33.0851 9.26785 34.3066 8.76073C35.5281 8.25358 37.0266 8 38.8021 8C41.2075 8 43.1278 8.49534 44.5633 9.48603C46.0113 10.4767 46.7481 11.8743 46.7734 13.6788H42.1645C42.026 12.9712 41.6481 12.4286 41.031 12.0512C40.4266 11.662 39.6648 11.4674 38.7454 11.4674C37.7884 11.4674 37.0015 11.6266 36.3845 11.9451C35.7675 12.2635 35.4588 12.7471 35.4588 13.3957C35.4588 13.8793 35.7107 14.2626 36.2143 14.5456C36.7182 14.8169 37.4988 15.0528 38.5567 15.2533L41.7298 15.9255C42.8254 16.1732 43.7134 16.5152 44.3934 16.9516C45.086 17.3762 45.6212 17.842 45.9988 18.3492C46.3767 18.8563 46.6349 19.3693 46.7734 19.8883C46.9245 20.3954 47 20.8554 47 21.2681C47 22.4829 46.6537 23.5208 45.9612 24.3818C45.2683 25.2309 44.3051 25.8796 43.071 26.3278C41.837 26.7759 40.4078 27 38.7833 27Z" fill="black"/>
<path d="M66 27H60.757L55.7297 19.1965L53.2613 21.751V27H48V1H53.2613V16.4146L60.1083 8.90848H65.7659L58.9909 16.1171L66 27Z" fill="black"/>
<path d="M72 9V27H67V9H72Z" fill="black"/>
<path fill-rule="evenodd" clip-rule="evenodd" d="M90 12V0H78V12H90ZM90 27V15H78V27H90ZM105 15V27H93V15H105Z" fill="#7EBB4F"/>
</svg>
