<svg width="15" height="15" viewBox="0 0 15 15" fill="none" xmlns="http://www.w3.org/2000/svg">
<path fill-rule="evenodd" clip-rule="evenodd" d="M6.84459 0.185547C3.1669 0.185547 0.185547 3.1669 0.185547 6.84459C0.185547 10.5223 3.1669 13.5036 6.84459 13.5036C8.36397 13.5036 9.76449 12.9948 10.885 12.1382L12.891 14.1389L12.9538 14.1943C13.2156 14.3973 13.5938 14.3783 13.8338 14.1376C14.0938 13.877 14.0932 13.4549 13.8325 13.1948L11.859 11.2264C12.8831 10.0554 13.5036 8.52245 13.5036 6.84459C13.5036 3.1669 10.5223 0.185547 6.84459 0.185547ZM6.84459 1.51888C9.78589 1.51888 12.1703 3.90328 12.1703 6.84459C12.1703 9.78589 9.78589 12.1703 6.84459 12.1703C3.90328 12.1703 1.51888 9.78589 1.51888 6.84459C1.51888 3.90328 3.90328 1.51888 6.84459 1.51888Z" fill="#979797"/>
<mask id="mask0_0_301" style="mask-type:luminance" maskUnits="userSpaceOnUse" x="0" y="0" width="15" height="15">
<path fill-rule="evenodd" clip-rule="evenodd" d="M6.84459 0.185547C3.1669 0.185547 0.185547 3.1669 0.185547 6.84459C0.185547 10.5223 3.1669 13.5036 6.84459 13.5036C8.36397 13.5036 9.76449 12.9948 10.885 12.1382L12.891 14.1389L12.9538 14.1943C13.2156 14.3973 13.5938 14.3783 13.8338 14.1376C14.0938 13.877 14.0932 13.4549 13.8325 13.1948L11.859 11.2264C12.8831 10.0554 13.5036 8.52245 13.5036 6.84459C13.5036 3.1669 10.5223 0.185547 6.84459 0.185547ZM6.84459 1.51888C9.78589 1.51888 12.1703 3.90328 12.1703 6.84459C12.1703 9.78589 9.78589 12.1703 6.84459 12.1703C3.90328 12.1703 1.51888 9.78589 1.51888 6.84459C1.51888 3.90328 3.90328 1.51888 6.84459 1.51888Z" fill="white"/>
</mask>
<g mask="url(#mask0_0_301)">
<rect x="-1" y="-1" width="16" height="16" fill="#B7B7B7"/>
</g>
</svg>
