<svg width="18" height="18" viewBox="0 0 18 18" fill="none" xmlns="http://www.w3.org/2000/svg">
<path fill-rule="evenodd" clip-rule="evenodd" d="M5.76765 7.51181L11.9955 1.284C13.0967 0.183981 14.8813 0.183981 15.9825 1.284L16.997 2.29848C18.0983 3.3998 18.0983 5.18602 16.997 6.28616L10.7395 12.5437C10.2439 13.0392 9.57193 13.3177 8.87107 13.3177H5.7494C5.28105 13.3177 4.90468 12.9319 4.91633 12.4637L4.99467 9.31342C5.01172 8.63615 5.28835 7.99111 5.76765 7.51181ZM15.8185 3.47699L14.8046 2.46314C14.3542 2.01315 13.6238 2.01315 13.1737 2.46282L12.8087 2.82782L15.4535 5.47264L15.8188 5.10733C16.2688 4.65779 16.2688 3.92733 15.8185 3.47699ZM14.275 6.65115L11.6302 4.00633L6.94616 8.69032C6.76922 8.86726 6.6671 9.10538 6.66081 9.35512L6.6029 11.6503L8.87107 11.6511C9.09282 11.6511 9.30679 11.5755 9.47869 11.4386L9.56098 11.3651L14.275 6.65115ZM8.57732 0.491151C9.03755 0.491151 9.41065 0.864247 9.41065 1.32448C9.41065 1.75185 9.08895 2.10407 8.6745 2.15221L8.57732 2.15782H5.46148C3.47699 2.15782 2.20449 3.45852 2.12919 5.51226L2.12565 5.70698V12.6353C2.12565 14.7386 3.3337 16.1001 5.27715 16.1807L5.46148 16.1845H12.8148C14.8045 16.1845 16.0729 14.8868 16.148 12.8303L16.1515 12.6353V9.27865C16.1515 8.81841 16.5246 8.44532 16.9848 8.44532C17.4122 8.44532 17.7644 8.76702 17.8125 9.18147L17.8182 9.27865V12.6353C17.8182 15.6313 15.9029 17.7551 13.0133 17.848L12.8148 17.8512H5.46148C2.52883 17.8512 0.548507 15.7938 0.461941 12.8382L0.458984 12.6353V5.70698C0.458984 2.71381 2.37902 0.58736 5.26334 0.494329L5.46148 0.491151H8.57732Z" fill="#0B0A11"/>
<mask id="mask0_0_499" style="mask-type:luminance" maskUnits="userSpaceOnUse" x="0" y="0" width="18" height="18">
<path fill-rule="evenodd" clip-rule="evenodd" d="M5.76765 7.51181L11.9955 1.284C13.0967 0.183981 14.8813 0.183981 15.9825 1.284L16.997 2.29848C18.0983 3.3998 18.0983 5.18602 16.997 6.28616L10.7395 12.5437C10.2439 13.0392 9.57193 13.3177 8.87107 13.3177H5.7494C5.28105 13.3177 4.90468 12.9319 4.91633 12.4637L4.99467 9.31342C5.01172 8.63615 5.28835 7.99111 5.76765 7.51181ZM15.8185 3.47699L14.8046 2.46314C14.3542 2.01315 13.6238 2.01315 13.1737 2.46282L12.8087 2.82782L15.4535 5.47264L15.8188 5.10733C16.2688 4.65779 16.2688 3.92733 15.8185 3.47699ZM14.275 6.65115L11.6302 4.00633L6.94616 8.69032C6.76922 8.86726 6.6671 9.10538 6.66081 9.35512L6.6029 11.6503L8.87107 11.6511C9.09282 11.6511 9.30679 11.5755 9.47869 11.4386L9.56098 11.3651L14.275 6.65115ZM8.57732 0.491151C9.03755 0.491151 9.41065 0.864247 9.41065 1.32448C9.41065 1.75185 9.08895 2.10407 8.6745 2.15221L8.57732 2.15782H5.46148C3.47699 2.15782 2.20449 3.45852 2.12919 5.51226L2.12565 5.70698V12.6353C2.12565 14.7386 3.3337 16.1001 5.27715 16.1807L5.46148 16.1845H12.8148C14.8045 16.1845 16.0729 14.8868 16.148 12.8303L16.1515 12.6353V9.27865C16.1515 8.81841 16.5246 8.44532 16.9848 8.44532C17.4122 8.44532 17.7644 8.76702 17.8125 9.18147L17.8182 9.27865V12.6353C17.8182 15.6313 15.9029 17.7551 13.0133 17.848L12.8148 17.8512H5.46148C2.52883 17.8512 0.548507 15.7938 0.461941 12.8382L0.458984 12.6353V5.70698C0.458984 2.71381 2.37902 0.58736 5.26334 0.494329L5.46148 0.491151H8.57732Z" fill="white"/>
</mask>
<g mask="url(#mask0_0_499)">
<rect x="-1" y="-1" width="20" height="20" fill="#B7B7B7"/>
</g>
</svg>
