<svg width="125" height="41" viewBox="0 0 125 41" fill="none" xmlns="http://www.w3.org/2000/svg">
<g clip-path="url(#clip0_0_399)">
<path fill-rule="evenodd" clip-rule="evenodd" d="M64.9032 0.769665C63.3975 -0.298995 61.3506 -0.254536 59.8923 0.901392L53.1757 6.29202C52.4474 6.91906 52.0098 7.84996 52 8.83725L52 17.5616L52.0049 17.7707C52.1149 20.1268 54.0753 21.9998 56.4729 21.9998H58.397L58.5567 21.9942C59.6124 21.9202 60.4687 21.1183 60.6157 20.087L60.621 20.0298L60.6308 20.0005C60.6481 19.9268 60.6572 19.8501 60.6572 19.7712V16.7044L60.6641 16.63C60.7001 16.4366 60.8739 16.2868 61.0877 16.2853L63.9671 16.2854L64.0456 16.2922C64.249 16.328 64.4005 16.5007 64.4005 16.7044V19.7807L64.4059 19.9369C64.485 21.0719 65.4226 21.9726 66.5798 21.9995L68.5271 21.9998L68.7375 21.9949C71.1081 21.886 73 19.9449 73 17.5616V8.8376L72.9907 8.62511C72.9173 7.63912 72.4298 6.73748 71.6449 6.13806L65.0812 0.903247L64.9032 0.769665ZM61.2811 2.36177C62.0546 1.84561 63.0941 1.88022 63.8366 2.46875L70.4145 7.71462L70.532 7.81375C70.829 8.09021 70.9947 8.46056 71.0001 8.85131L71 17.5616L70.9948 17.7217C70.9112 18.9917 69.8404 19.9998 68.5271 19.9998H66.603L66.5517 19.9907C66.4685 19.9635 66.4005 19.8782 66.4005 19.781V16.7044L66.3953 16.5451C66.3128 15.2814 65.2551 14.2854 63.9671 14.2854H61.081L60.9213 14.2915C59.6542 14.3809 58.6572 15.4258 58.6572 16.7045L58.657 19.5808L58.6447 19.6545C58.6403 19.6928 58.638 19.7317 58.638 19.7712C58.638 19.8952 58.5323 19.9998 58.397 19.9998H56.4729L56.3101 19.9946C55.0183 19.9119 54 18.8521 54 17.5616V8.84713L54.0089 8.70531C54.0523 8.32961 54.2517 7.97746 54.566 7.73936L61.1393 2.465L61.2811 2.36177Z" fill="#979797"/>
<mask id="mask0_0_399" style="mask-type:luminance" maskUnits="userSpaceOnUse" x="52" y="0" width="21" height="22">
<path fill-rule="evenodd" clip-rule="evenodd" d="M64.9032 0.769665C63.3975 -0.298995 61.3506 -0.254536 59.8923 0.901392L53.1757 6.29202C52.4474 6.91906 52.0098 7.84996 52 8.83725L52 17.5616L52.0049 17.7707C52.1149 20.1268 54.0753 21.9998 56.4729 21.9998H58.397L58.5567 21.9942C59.6124 21.9202 60.4687 21.1183 60.6157 20.087L60.621 20.0298L60.6308 20.0005C60.6481 19.9268 60.6572 19.8501 60.6572 19.7712V16.7044L60.6641 16.63C60.7001 16.4366 60.8739 16.2868 61.0877 16.2853L63.9671 16.2854L64.0456 16.2922C64.249 16.328 64.4005 16.5007 64.4005 16.7044V19.7807L64.4059 19.9369C64.485 21.0719 65.4226 21.9726 66.5798 21.9995L68.5271 21.9998L68.7375 21.9949C71.1081 21.886 73 19.9449 73 17.5616V8.8376L72.9907 8.62511C72.9173 7.63912 72.4298 6.73748 71.6449 6.13806L65.0812 0.903247L64.9032 0.769665ZM61.2811 2.36177C62.0546 1.84561 63.0941 1.88022 63.8366 2.46875L70.4145 7.71462L70.532 7.81375C70.829 8.09021 70.9947 8.46056 71.0001 8.85131L71 17.5616L70.9948 17.7217C70.9112 18.9917 69.8404 19.9998 68.5271 19.9998H66.603L66.5517 19.9907C66.4685 19.9635 66.4005 19.8782 66.4005 19.781V16.7044L66.3953 16.5451C66.3128 15.2814 65.2551 14.2854 63.9671 14.2854H61.081L60.9213 14.2915C59.6542 14.3809 58.6572 15.4258 58.6572 16.7045L58.657 19.5808L58.6447 19.6545C58.6403 19.6928 58.638 19.7317 58.638 19.7712C58.638 19.8952 58.5323 19.9998 58.397 19.9998H56.4729L56.3101 19.9946C55.0183 19.9119 54 18.8521 54 17.5616V8.84713L54.0089 8.70531C54.0523 8.32961 54.2517 7.97746 54.566 7.73936L61.1393 2.465L61.2811 2.36177Z" fill="white"/>
</mask>
<g mask="url(#mask0_0_399)">
<rect x="50.5" y="-1" width="24" height="24" fill="#7EBB4F"/>
</g>
<path d="M37.9103 37H43.024V36.0625H38.9672V28.2727H37.9103V37ZM44.524 37H45.5297V30.4545H44.524V37ZM45.0353 29.3636C45.4274 29.3636 45.7512 29.0568 45.7512 28.6818C45.7512 28.3068 45.4274 28 45.0353 28C44.6433 28 44.3194 28.3068 44.3194 28.6818C44.3194 29.0568 44.6433 29.3636 45.0353 29.3636ZM52.008 31.9205C51.6926 30.9915 50.9853 30.3693 49.6898 30.3693C48.3091 30.3693 47.2864 31.1534 47.2864 32.2614C47.2864 33.1648 47.8233 33.7699 49.025 34.0511L50.1159 34.3068C50.7765 34.4602 51.0875 34.7756 51.0875 35.2273C51.0875 35.7898 50.4909 36.25 49.5534 36.25C48.731 36.25 48.2154 35.8963 48.0364 35.1932L47.0819 35.4318C47.3162 36.544 48.2324 37.1364 49.5705 37.1364C51.0918 37.1364 52.1273 36.3054 52.1273 35.1761C52.1273 34.2642 51.5563 33.6889 50.3887 33.4034L49.4171 33.1648C48.6415 32.973 48.2921 32.7131 48.2921 32.2102C48.2921 31.6477 48.8887 31.2386 49.6898 31.2386C50.5676 31.2386 50.9299 31.7244 51.1046 32.1761L52.008 31.9205ZM56.4877 30.4545H55.09V28.8864H54.0843V30.4545H53.0957V31.3068H54.0843V35.3977C54.0843 36.5398 55.0048 37.0852 55.8571 37.0852C56.2321 37.0852 56.4707 37.017 56.6071 36.9659L56.4025 36.0625C56.3173 36.0795 56.1809 36.1136 55.9593 36.1136C55.5162 36.1136 55.09 35.9773 55.09 35.125V31.3068H56.4877V30.4545ZM61.8699 28.2727H60.7619L63.9664 37H65.0574L68.2619 28.2727H67.1539L64.563 35.6193H64.4608L61.8699 28.2727ZM69.4849 37H70.4906V30.4545H69.4849V37ZM69.9963 29.3636C70.3883 29.3636 70.7122 29.0568 70.7122 28.6818C70.7122 28.3068 70.3883 28 69.9963 28C69.6042 28 69.2804 28.3068 69.2804 28.6818C69.2804 29.0568 69.6042 29.3636 69.9963 29.3636ZM75.0769 37.1364C76.4064 37.1364 77.378 36.4716 77.6848 35.483L76.7132 35.2102C76.4576 35.892 75.8652 36.233 75.0769 36.233C73.8965 36.233 73.0826 35.4702 73.0357 34.0682H77.7871V33.642C77.7871 31.2045 76.3382 30.3693 74.9746 30.3693C73.2019 30.3693 72.0257 31.767 72.0257 33.7784C72.0257 35.7898 73.1848 37.1364 75.0769 37.1364ZM73.0357 33.1989C73.1039 32.1804 73.824 31.2727 74.9746 31.2727C76.0655 31.2727 76.7644 32.0909 76.7644 33.1989H73.0357ZM80.7999 37H81.7885L83.2203 31.9716H83.3226L84.7544 37H85.7431L87.7374 30.4545H86.6806L85.2658 35.4489H85.1976L83.8169 30.4545H82.7431L81.3453 35.4659H81.2772L79.8624 30.4545H78.8056L80.7999 37Z" fill="#0B0A11"/>
</g>
<defs>
<clipPath id="clip0_0_399">
<rect width="125" height="41" fill="white"/>
</clipPath>
</defs>
</svg>
