<svg width="125" height="41" viewBox="0 0 125 41" fill="none" xmlns="http://www.w3.org/2000/svg">
<g clip-path="url(#clip0_0_389)">
<path d="M29.5346 31C29.2108 29.2102 27.7789 28.1534 26.0233 28.1534C23.7903 28.1534 22.171 29.875 22.171 32.6364C22.171 35.3977 23.7903 37.1193 26.0233 37.1193C27.7789 37.1193 29.2108 36.0625 29.5346 34.2727H28.4778C28.2221 35.483 27.1824 36.1307 26.0233 36.1307C24.438 36.1307 23.1937 34.9034 23.1937 32.6364C23.1937 30.3693 24.438 29.142 26.0233 29.142C27.1824 29.142 28.2221 29.7898 28.4778 31H29.5346ZM33.0321 37.1534C34.1742 37.1534 34.7708 36.5398 34.9753 36.1136H35.0265V37H36.0321V32.6875C36.0321 30.608 34.4469 30.3693 33.6117 30.3693C32.623 30.3693 31.498 30.7102 30.9867 31.9034L31.9412 32.2443C32.1628 31.767 32.687 31.2557 33.6458 31.2557C34.5705 31.2557 35.0265 31.7457 35.0265 32.5852V32.6193C35.0265 33.1051 34.5321 33.0625 33.339 33.2159C32.1245 33.3736 30.7992 33.642 30.7992 35.142C30.7992 36.4205 31.7878 37.1534 33.0321 37.1534ZM33.1855 36.25C32.3844 36.25 31.8049 35.892 31.8049 35.1932C31.8049 34.4261 32.5037 34.1875 33.2878 34.0852C33.714 34.0341 34.856 33.9148 35.0265 33.7102V34.6307C35.0265 35.4489 34.3787 36.25 33.1855 36.25ZM38.8734 28.2727H37.8677V37H38.8734V28.2727ZM43.4597 37.1364C44.7892 37.1364 45.7608 36.4716 46.0676 35.483L45.0961 35.2102C44.8404 35.892 44.248 36.233 43.4597 36.233C42.2793 36.233 41.4654 35.4702 41.4185 34.0682H46.1699V33.642C46.1699 31.2045 44.7211 30.3693 43.3574 30.3693C41.5847 30.3693 40.4086 31.767 40.4086 33.7784C40.4086 35.7898 41.5676 37.1364 43.4597 37.1364ZM41.4185 33.1989C41.4867 32.1804 42.2069 31.2727 43.3574 31.2727C44.4483 31.2727 45.1472 32.0909 45.1472 33.1989H41.4185ZM48.7054 33.0625C48.7054 31.9205 49.4128 31.2727 50.3759 31.2727C51.3091 31.2727 51.8759 31.8821 51.8759 32.9091V37H52.8816V32.8409C52.8816 31.1705 51.9909 30.3693 50.6657 30.3693C49.677 30.3693 49.0634 30.8125 48.7566 31.4773H48.6713V30.4545H47.6998V37H48.7054V33.0625ZM57.1909 37.1364C58.4522 37.1364 58.8784 36.3523 59.1 35.9943H59.2193V37H60.1909V28.2727H59.1852V31.4943H59.1C58.8784 31.1534 58.4863 30.3693 57.2079 30.3693C55.5545 30.3693 54.4125 31.6818 54.4125 33.7443C54.4125 35.8239 55.5545 37.1364 57.1909 37.1364ZM57.3272 36.233C56.0659 36.233 55.4181 35.125 55.4181 33.7273C55.4181 32.3466 56.0488 31.2727 57.3272 31.2727C58.5545 31.2727 59.2022 32.2614 59.2022 33.7273C59.2022 35.2102 58.5375 36.233 57.3272 36.233ZM64.0985 37.1534C65.2406 37.1534 65.8372 36.5398 66.0417 36.1136H66.0929V37H67.0985V32.6875C67.0985 30.608 65.5133 30.3693 64.6781 30.3693C63.6895 30.3693 62.5645 30.7102 62.0531 31.9034L63.0076 32.2443C63.2292 31.767 63.7534 31.2557 64.7122 31.2557C65.6369 31.2557 66.0929 31.7457 66.0929 32.5852V32.6193C66.0929 33.1051 65.5985 33.0625 64.4054 33.2159C63.1909 33.3736 61.8656 33.642 61.8656 35.142C61.8656 36.4205 62.8542 37.1534 64.0985 37.1534ZM64.252 36.25C63.4508 36.25 62.8713 35.892 62.8713 35.1932C62.8713 34.4261 63.5701 34.1875 64.3542 34.0852C64.7804 34.0341 65.9224 33.9148 66.0929 33.7102V34.6307C66.0929 35.4489 65.4451 36.25 64.252 36.25ZM68.9341 37H69.9398V32.858C69.9398 31.9716 70.6387 31.3239 71.5932 31.3239C71.8617 31.3239 72.1387 31.375 72.2069 31.392V30.3693C72.0918 30.3608 71.8276 30.3523 71.6784 30.3523C70.8944 30.3523 70.2125 30.7955 69.9739 31.4432H69.9057V30.4545H68.9341V37ZM77.2683 28.2727H76.1603L79.3649 37H80.4558L83.6603 28.2727H82.5524L79.9615 35.6193H79.8592L77.2683 28.2727ZM84.8833 37H85.889V30.4545H84.8833V37ZM85.3947 29.3636C85.7868 29.3636 86.1106 29.0568 86.1106 28.6818C86.1106 28.3068 85.7868 28 85.3947 28C85.0027 28 84.6788 28.3068 84.6788 28.6818C84.6788 29.0568 85.0027 29.3636 85.3947 29.3636ZM90.4753 37.1364C91.8049 37.1364 92.7765 36.4716 93.0833 35.483L92.1117 35.2102C91.856 35.892 91.2637 36.233 90.4753 36.233C89.2949 36.233 88.481 35.4702 88.4341 34.0682H93.1855V33.642C93.1855 31.2045 91.7367 30.3693 90.373 30.3693C88.6003 30.3693 87.4242 31.767 87.4242 33.7784C87.4242 35.7898 88.5833 37.1364 90.4753 37.1364ZM88.4341 33.1989C88.5023 32.1804 89.2225 31.2727 90.373 31.2727C91.464 31.2727 92.1628 32.0909 92.1628 33.1989H88.4341ZM96.1983 37H97.187L98.6188 31.9716H98.7211L100.153 37H101.142L103.136 30.4545H102.079L100.664 35.4489H100.596L99.2154 30.4545H98.1415L96.7438 35.4659H96.6756L95.2608 30.4545H94.204L96.1983 37Z" fill="#0B0A11" fill-opacity="0.4"/>
<path fill-rule="evenodd" clip-rule="evenodd" d="M64.9032 0.769665C63.3975 -0.298995 61.3506 -0.254536 59.8923 0.901392L53.1757 6.29202C52.4474 6.91906 52.0098 7.84996 52 8.83725L52 17.5616L52.0049 17.7707C52.1149 20.1268 54.0753 21.9998 56.4729 21.9998H58.397L58.5567 21.9942C59.6124 21.9202 60.4687 21.1183 60.6157 20.087L60.621 20.0298L60.6308 20.0005C60.6481 19.9268 60.6572 19.8501 60.6572 19.7712V16.7044L60.6641 16.63C60.7001 16.4366 60.8739 16.2868 61.0877 16.2853L63.9671 16.2854L64.0456 16.2922C64.249 16.328 64.4005 16.5007 64.4005 16.7044V19.7807L64.4059 19.9369C64.485 21.0719 65.4226 21.9726 66.5798 21.9995L68.5271 21.9998L68.7375 21.9949C71.1081 21.886 73 19.9449 73 17.5616V8.8376L72.9907 8.62511C72.9173 7.63912 72.4298 6.73748 71.6449 6.13806L65.0812 0.903247L64.9032 0.769665ZM61.2811 2.36177C62.0546 1.84561 63.0941 1.88022 63.8366 2.46875L70.4145 7.71462L70.532 7.81375C70.829 8.09021 70.9947 8.46056 71.0001 8.85131L71 17.5616L70.9948 17.7217C70.9112 18.9917 69.8404 19.9998 68.5271 19.9998H66.603L66.5517 19.9907C66.4685 19.9635 66.4005 19.8782 66.4005 19.781V16.7044L66.3953 16.5451C66.3128 15.2814 65.2551 14.2854 63.9671 14.2854H61.081L60.9213 14.2915C59.6542 14.3809 58.6572 15.4258 58.6572 16.7045L58.657 19.5808L58.6447 19.6545C58.6403 19.6928 58.638 19.7317 58.638 19.7712C58.638 19.8952 58.5323 19.9998 58.397 19.9998H56.4729L56.3101 19.9946C55.0183 19.9119 54 18.8521 54 17.5616V8.84713L54.0089 8.70531C54.0523 8.32961 54.2517 7.97746 54.566 7.73936L61.1393 2.465L61.2811 2.36177Z" fill="#979797"/>
<mask id="mask0_0_389" style="mask-type:luminance" maskUnits="userSpaceOnUse" x="52" y="0" width="21" height="22">
<path fill-rule="evenodd" clip-rule="evenodd" d="M64.9032 0.769665C63.3975 -0.298995 61.3506 -0.254536 59.8923 0.901392L53.1757 6.29202C52.4474 6.91906 52.0098 7.84996 52 8.83725L52 17.5616L52.0049 17.7707C52.1149 20.1268 54.0753 21.9998 56.4729 21.9998H58.397L58.5567 21.9942C59.6124 21.9202 60.4687 21.1183 60.6157 20.087L60.621 20.0298L60.6308 20.0005C60.6481 19.9268 60.6572 19.8501 60.6572 19.7712V16.7044L60.6641 16.63C60.7001 16.4366 60.8739 16.2868 61.0877 16.2853L63.9671 16.2854L64.0456 16.2922C64.249 16.328 64.4005 16.5007 64.4005 16.7044V19.7807L64.4059 19.9369C64.485 21.0719 65.4226 21.9726 66.5798 21.9995L68.5271 21.9998L68.7375 21.9949C71.1081 21.886 73 19.9449 73 17.5616V8.8376L72.9907 8.62511C72.9173 7.63912 72.4298 6.73748 71.6449 6.13806L65.0812 0.903247L64.9032 0.769665ZM61.2811 2.36177C62.0546 1.84561 63.0941 1.88022 63.8366 2.46875L70.4145 7.71462L70.532 7.81375C70.829 8.09021 70.9947 8.46056 71.0001 8.85131L71 17.5616L70.9948 17.7217C70.9112 18.9917 69.8404 19.9998 68.5271 19.9998H66.603L66.5517 19.9907C66.4685 19.9635 66.4005 19.8782 66.4005 19.781V16.7044L66.3953 16.5451C66.3128 15.2814 65.2551 14.2854 63.9671 14.2854H61.081L60.9213 14.2915C59.6542 14.3809 58.6572 15.4258 58.6572 16.7045L58.657 19.5808L58.6447 19.6545C58.6403 19.6928 58.638 19.7317 58.638 19.7712C58.638 19.8952 58.5323 19.9998 58.397 19.9998H56.4729L56.3101 19.9946C55.0183 19.9119 54 18.8521 54 17.5616V8.84713L54.0089 8.70531C54.0523 8.32961 54.2517 7.97746 54.566 7.73936L61.1393 2.465L61.2811 2.36177Z" fill="white"/>
</mask>
<g mask="url(#mask0_0_389)">
<rect x="50.5" y="-1" width="24" height="24" fill="#B7B7B7"/>
</g>
</g>
<defs>
<clipPath id="clip0_0_389">
<rect width="125" height="41" fill="white"/>
</clipPath>
</defs>
</svg>
