<svg width="3" height="15" viewBox="0 0 3 15" fill="none" xmlns="http://www.w3.org/2000/svg">
<path fill-rule="evenodd" clip-rule="evenodd" d="M1.5 3C0.672371 3 0 2.32735 0 1.50063C0 0.673904 0.672371 0 1.5 0C2.32763 0 3 0.673904 3 1.50063C3 2.32735 2.32763 3 1.5 3ZM1.5 9C0.672371 9 0 8.32735 0 7.50063C0 6.6739 0.672371 6 1.5 6C2.32763 6 3 6.6739 3 7.50063C3 8.32735 2.32763 9 1.5 9ZM0 13.5006C0 14.3273 0.672371 15 1.5 15C2.32763 15 3 14.3273 3 13.5006C3 12.6739 2.32763 12 1.5 12C0.672371 12 0 12.6739 0 13.5006Z" fill="#0B0A11"/>
<mask id="mask0_15_193" style="mask-type:luminance" maskUnits="userSpaceOnUse" x="0" y="0" width="3" height="15">
<path fill-rule="evenodd" clip-rule="evenodd" d="M1.5 3C0.672371 3 0 2.32735 0 1.50063C0 0.673904 0.672371 0 1.5 0C2.32763 0 3 0.673904 3 1.50063C3 2.32735 2.32763 3 1.5 3ZM1.5 9C0.672371 9 0 8.32735 0 7.50063C0 6.6739 0.672371 6 1.5 6C2.32763 6 3 6.6739 3 7.50063C3 8.32735 2.32763 9 1.5 9ZM0 13.5006C0 14.3273 0.672371 15 1.5 15C2.32763 15 3 14.3273 3 13.5006C3 12.6739 2.32763 12 1.5 12C0.672371 12 0 12.6739 0 13.5006Z" fill="white"/>
</mask>
<g mask="url(#mask0_15_193)">
<rect x="-7.5" y="-1.5" width="18" height="18" fill="#B7B7B7"/>
</g>
</svg>
