<svg width="23" height="22" viewBox="0 0 23 22" fill="none" xmlns="http://www.w3.org/2000/svg">
<path fill-rule="evenodd" clip-rule="evenodd" d="M13.9032 0.769665C12.3975 -0.298995 10.3506 -0.254536 8.89225 0.901392L2.17569 6.29202C1.44737 6.91906 1.0098 7.84996 1.00005 8.83725L1 17.5616L1.00487 17.7707C1.11494 20.1268 3.07535 21.9998 5.47291 21.9998H7.39696L7.55674 21.9942C8.61238 21.9202 9.4687 21.1183 9.61567 20.087L9.621 20.0298L9.6308 20.0005C9.64808 19.9268 9.65722 19.8501 9.65722 19.7712V16.7044L9.66406 16.63C9.70006 16.4366 9.87395 16.2868 10.0877 16.2853L12.9671 16.2854L13.0456 16.2922C13.249 16.328 13.4005 16.5007 13.4005 16.7044V19.7807L13.4059 19.9369C13.485 21.0719 14.4226 21.9726 15.5798 21.9995L17.5271 21.9998L17.7375 21.9949C20.1081 21.886 22 19.9449 22 17.5616V8.8376L21.9907 8.62511C21.9173 7.63912 21.4298 6.73748 20.6449 6.13806L14.0812 0.903247L13.9032 0.769665ZM10.2811 2.36177C11.0546 1.84561 12.0941 1.88022 12.8366 2.46875L19.4145 7.71462L19.532 7.81375C19.829 8.09021 19.9947 8.46056 20.0001 8.85131L20 17.5616L19.9948 17.7217C19.9112 18.9917 18.8404 19.9998 17.5271 19.9998H15.603L15.5517 19.9907C15.4685 19.9635 15.4005 19.8782 15.4005 19.781V16.7044L15.3953 16.5451C15.3128 15.2814 14.2551 14.2854 12.9671 14.2854H10.081L9.92127 14.2915C8.65419 14.3809 7.65719 15.4258 7.65722 16.7045L7.657 19.5808L7.6447 19.6545C7.64026 19.6928 7.63797 19.7317 7.63797 19.7712C7.63797 19.8952 7.53231 19.9998 7.39696 19.9998H5.47291L5.31007 19.9946C4.0183 19.9119 3 18.8521 3 17.5616V8.84713L3.0089 8.70531C3.05233 8.32961 3.25174 7.97746 3.56597 7.73936L10.1393 2.465L10.2811 2.36177Z" fill="#979797"/>
<mask id="mask0_0_400" style="mask-type:luminance" maskUnits="userSpaceOnUse" x="1" y="0" width="21" height="22">
<path fill-rule="evenodd" clip-rule="evenodd" d="M13.9032 0.769665C12.3975 -0.298995 10.3506 -0.254536 8.89225 0.901392L2.17569 6.29202C1.44737 6.91906 1.0098 7.84996 1.00005 8.83725L1 17.5616L1.00487 17.7707C1.11494 20.1268 3.07535 21.9998 5.47291 21.9998H7.39696L7.55674 21.9942C8.61238 21.9202 9.4687 21.1183 9.61567 20.087L9.621 20.0298L9.6308 20.0005C9.64808 19.9268 9.65722 19.8501 9.65722 19.7712V16.7044L9.66406 16.63C9.70006 16.4366 9.87395 16.2868 10.0877 16.2853L12.9671 16.2854L13.0456 16.2922C13.249 16.328 13.4005 16.5007 13.4005 16.7044V19.7807L13.4059 19.9369C13.485 21.0719 14.4226 21.9726 15.5798 21.9995L17.5271 21.9998L17.7375 21.9949C20.1081 21.886 22 19.9449 22 17.5616V8.8376L21.9907 8.62511C21.9173 7.63912 21.4298 6.73748 20.6449 6.13806L14.0812 0.903247L13.9032 0.769665ZM10.2811 2.36177C11.0546 1.84561 12.0941 1.88022 12.8366 2.46875L19.4145 7.71462L19.532 7.81375C19.829 8.09021 19.9947 8.46056 20.0001 8.85131L20 17.5616L19.9948 17.7217C19.9112 18.9917 18.8404 19.9998 17.5271 19.9998H15.603L15.5517 19.9907C15.4685 19.9635 15.4005 19.8782 15.4005 19.781V16.7044L15.3953 16.5451C15.3128 15.2814 14.2551 14.2854 12.9671 14.2854H10.081L9.92127 14.2915C8.65419 14.3809 7.65719 15.4258 7.65722 16.7045L7.657 19.5808L7.6447 19.6545C7.64026 19.6928 7.63797 19.7317 7.63797 19.7712C7.63797 19.8952 7.53231 19.9998 7.39696 19.9998H5.47291L5.31007 19.9946C4.0183 19.9119 3 18.8521 3 17.5616V8.84713L3.0089 8.70531C3.05233 8.32961 3.25174 7.97746 3.56597 7.73936L10.1393 2.465L10.2811 2.36177Z" fill="white"/>
</mask>
<g mask="url(#mask0_0_400)">
<rect x="-0.5" y="-1" width="24" height="24" fill="#7EBB4F"/>
</g>
</svg>
