<svg width="125" height="89" viewBox="0 0 125 89" fill="none" xmlns="http://www.w3.org/2000/svg">
<g filter="url(#filter0_d_0_409)">
<circle cx="64.2363" cy="49" r="24" fill="white"/>
</g>
<circle cx="64.2363" cy="49" r="20" fill="#7EBB4F"/>
<path fill-rule="evenodd" clip-rule="evenodd" d="M66.6395 38.7697C65.1338 37.701 63.0869 37.7455 61.6286 38.9014L54.912 44.292C54.1837 44.9191 53.7461 45.85 53.7364 46.8372L53.7363 55.5616L53.7412 55.7707C53.8513 58.1268 55.8117 59.9998 58.2092 59.9998H60.1333L60.2931 59.9942C61.3487 59.9202 62.205 59.1183 62.352 58.087L62.3573 58.0298L62.3671 58.0005C62.3844 57.9268 62.3935 57.8501 62.3935 57.7712V54.7044L62.4004 54.63C62.4364 54.4366 62.6103 54.2868 62.824 54.2853L65.7034 54.2854L65.7819 54.2922C65.9853 54.328 66.1368 54.5007 66.1368 54.7044V57.7807L66.1422 57.9369C66.2213 59.0719 67.1589 59.9726 68.3162 59.9995L70.2634 59.9998L70.4738 59.9949C72.8444 59.886 74.7363 57.9449 74.7363 55.5616V46.8376L74.727 46.6251C74.6536 45.6391 74.1661 44.7375 73.3813 44.1381L66.8176 38.9032L66.6395 38.7697ZM63.0174 40.3618C63.7909 39.8456 64.8304 39.8802 65.5729 40.4687L72.1508 45.7146L72.2683 45.8138C72.5653 46.0902 72.7311 46.4606 72.7364 46.8513L72.7363 55.5616L72.7311 55.7217C72.6475 56.9917 71.5767 57.9998 70.2634 57.9998H68.3394L68.2881 57.9907C68.2049 57.9635 68.1368 57.8782 68.1368 57.781V54.7044L68.1316 54.5451C68.0491 53.2814 66.9915 52.2854 65.7034 52.2854H62.8173L62.6576 52.2915C61.3905 52.3809 60.3935 53.4258 60.3935 54.7045L60.3933 57.5808L60.381 57.6545C60.3766 57.6928 60.3743 57.7317 60.3743 57.7712C60.3743 57.8952 60.2686 57.9998 60.1333 57.9998H58.2092L58.0464 57.9946C56.7546 57.9119 55.7363 56.8521 55.7363 55.5616V46.8471L55.7452 46.7053C55.7887 46.3296 55.9881 45.9775 56.3023 45.7394L62.8756 40.465L63.0174 40.3618Z" fill="#979797"/>
<mask id="mask0_0_409" style="mask-type:luminance" maskUnits="userSpaceOnUse" x="53" y="38" width="22" height="22">
<path fill-rule="evenodd" clip-rule="evenodd" d="M66.6395 38.7697C65.1338 37.701 63.0869 37.7455 61.6286 38.9014L54.912 44.292C54.1837 44.9191 53.7461 45.85 53.7364 46.8372L53.7363 55.5616L53.7412 55.7707C53.8513 58.1268 55.8117 59.9998 58.2092 59.9998H60.1333L60.2931 59.9942C61.3487 59.9202 62.205 59.1183 62.352 58.087L62.3573 58.0298L62.3671 58.0005C62.3844 57.9268 62.3935 57.8501 62.3935 57.7712V54.7044L62.4004 54.63C62.4364 54.4366 62.6103 54.2868 62.824 54.2853L65.7034 54.2854L65.7819 54.2922C65.9853 54.328 66.1368 54.5007 66.1368 54.7044V57.7807L66.1422 57.9369C66.2213 59.0719 67.1589 59.9726 68.3162 59.9995L70.2634 59.9998L70.4738 59.9949C72.8444 59.886 74.7363 57.9449 74.7363 55.5616V46.8376L74.727 46.6251C74.6536 45.6391 74.1661 44.7375 73.3813 44.1381L66.8176 38.9032L66.6395 38.7697ZM63.0174 40.3618C63.7909 39.8456 64.8304 39.8802 65.5729 40.4687L72.1508 45.7146L72.2683 45.8138C72.5653 46.0902 72.7311 46.4606 72.7364 46.8513L72.7363 55.5616L72.7311 55.7217C72.6475 56.9917 71.5767 57.9998 70.2634 57.9998H68.3394L68.2881 57.9907C68.2049 57.9635 68.1368 57.8782 68.1368 57.781V54.7044L68.1316 54.5451C68.0491 53.2814 66.9915 52.2854 65.7034 52.2854H62.8173L62.6576 52.2915C61.3905 52.3809 60.3935 53.4258 60.3935 54.7045L60.3933 57.5808L60.381 57.6545C60.3766 57.6928 60.3743 57.7317 60.3743 57.7712C60.3743 57.8952 60.2686 57.9998 60.1333 57.9998H58.2092L58.0464 57.9946C56.7546 57.9119 55.7363 56.8521 55.7363 55.5616V46.8471L55.7452 46.7053C55.7887 46.3296 55.9881 45.9775 56.3023 45.7394L62.8756 40.465L63.0174 40.3618Z" fill="white"/>
</mask>
<g mask="url(#mask0_0_409)">
<rect x="52.2363" y="37" width="24" height="24" fill="white"/>
</g>
<path d="M37.5359 85L38.4137 82.5284H41.9421L42.82 85H43.9279L40.7234 76.2727H39.6325L36.4279 85H37.5359ZM38.7461 81.5909L40.1438 77.6534H40.212L41.6097 81.5909H38.7461ZM47.6225 85.1364C48.8839 85.1364 49.31 84.3523 49.5316 83.9943H49.6509V85H50.6225V76.2727H49.6168V79.4943H49.5316C49.31 79.1534 48.918 78.3693 47.6396 78.3693C45.9862 78.3693 44.8441 79.6818 44.8441 81.7443C44.8441 83.8239 45.9862 85.1364 47.6225 85.1364ZM47.7589 84.233C46.4975 84.233 45.8498 83.125 45.8498 81.7273C45.8498 80.3466 46.4805 79.2727 47.7589 79.2727C48.9862 79.2727 49.6339 80.2614 49.6339 81.7273C49.6339 83.2102 48.9691 84.233 47.7589 84.233ZM55.0756 85.1364C56.337 85.1364 56.7631 84.3523 56.9847 83.9943H57.104V85H58.0756V76.2727H57.07V79.4943H56.9847C56.7631 79.1534 56.3711 78.3693 55.0927 78.3693C53.4393 78.3693 52.2972 79.6818 52.2972 81.7443C52.2972 83.8239 53.4393 85.1364 55.0756 85.1364ZM55.212 84.233C53.9506 84.233 53.3029 83.125 53.3029 81.7273C53.3029 80.3466 53.9336 79.2727 55.212 79.2727C56.4393 79.2727 57.087 80.2614 57.087 81.7273C57.087 83.2102 56.4222 84.233 55.212 84.233ZM63.0913 77.2102H65.8356V85H66.8924V77.2102H69.6367V76.2727H63.0913V77.2102ZM72.1669 85.1534C73.3089 85.1534 73.9055 84.5398 74.1101 84.1136H74.1612V85H75.1669V80.6875C75.1669 78.608 73.5817 78.3693 72.7464 78.3693C71.7578 78.3693 70.6328 78.7102 70.1214 79.9034L71.076 80.2443C71.2976 79.767 71.8217 79.2557 72.7805 79.2557C73.7053 79.2557 74.1612 79.7457 74.1612 80.5852V80.6193C74.1612 81.1051 73.6669 81.0625 72.4737 81.2159C71.2592 81.3736 69.9339 81.642 69.9339 83.142C69.9339 84.4205 70.9226 85.1534 72.1669 85.1534ZM72.3203 84.25C71.5192 84.25 70.9396 83.892 70.9396 83.1932C70.9396 82.4261 71.6385 82.1875 72.4226 82.0852C72.8487 82.0341 73.9908 81.9148 74.1612 81.7102V82.6307C74.1612 83.4489 73.5135 84.25 72.3203 84.25ZM81.6388 79.9205C81.3235 78.9915 80.6161 78.3693 79.3207 78.3693C77.94 78.3693 76.9173 79.1534 76.9173 80.2614C76.9173 81.1648 77.4542 81.7699 78.6559 82.0511L79.7468 82.3068C80.4073 82.4602 80.7184 82.7756 80.7184 83.2273C80.7184 83.7898 80.1218 84.25 79.1843 84.25C78.3619 84.25 77.8462 83.8963 77.6673 83.1932L76.7127 83.4318C76.9471 84.544 77.8633 85.1364 79.2013 85.1364C80.7227 85.1364 81.7582 84.3054 81.7582 83.1761C81.7582 82.2642 81.1871 81.6889 80.0195 81.4034L79.0479 81.1648C78.2724 80.973 77.9229 80.7131 77.9229 80.2102C77.9229 79.6477 78.5195 79.2386 79.3207 79.2386C80.1985 79.2386 80.5607 79.7244 80.7354 80.1761L81.6388 79.9205ZM83.272 85H84.2777V82.5497L84.9808 81.8977L87.4311 85H88.7095L85.7393 81.25L88.505 78.4545H87.2607L84.397 81.3693H84.2777V76.2727H83.272V85Z" fill="#0B0A11" fill-opacity="0.4"/>
<defs>
<filter id="filter0_d_0_409" x="30.2363" y="10" width="68" height="68" filterUnits="userSpaceOnUse" color-interpolation-filters="sRGB">
<feFlood flood-opacity="0" result="BackgroundImageFix"/>
<feColorMatrix in="SourceAlpha" type="matrix" values="0 0 0 0 0 0 0 0 0 0 0 0 0 0 0 0 0 0 127 0" result="hardAlpha"/>
<feOffset dy="-5"/>
<feGaussianBlur stdDeviation="5"/>
<feColorMatrix type="matrix" values="0 0 0 0 0 0 0 0 0 0 0 0 0 0 0 0 0 0 0.08 0"/>
<feBlend mode="normal" in2="BackgroundImageFix" result="effect1_dropShadow_0_409"/>
<feBlend mode="normal" in="SourceGraphic" in2="effect1_dropShadow_0_409" result="shape"/>
</filter>
</defs>
</svg>
