<svg width="125" height="89" viewBox="0 0 125 89" fill="none" xmlns="http://www.w3.org/2000/svg">
<g filter="url(#filter0_d_0_409)">
<circle cx="64.2363" cy="49" r="24" fill="white"/>
</g>
<circle cx="64.2363" cy="49" r="20" fill="#7EBB4F"/>
<path fill-rule="evenodd" clip-rule="evenodd" d="M66.6395 38.7697C65.1338 37.701 63.0869 37.7455 61.6286 38.9014L54.912 44.292C54.1837 44.9191 53.7461 45.85 53.7364 46.8372L53.7363 55.5616L53.7412 55.7707C53.8513 58.1268 55.8117 59.9998 58.2092 59.9998H60.1333L60.2931 59.9942C61.3487 59.9202 62.205 59.1183 62.352 58.087L62.3573 58.0298L62.3671 58.0005C62.3844 57.9268 62.3935 57.8501 62.3935 57.7712V54.7044L62.4004 54.63C62.4364 54.4366 62.6103 54.2868 62.824 54.2853L65.7034 54.2854L65.7819 54.2922C65.9853 54.328 66.1368 54.5007 66.1368 54.7044V57.7807L66.1422 57.9369C66.2213 59.0719 67.1589 59.9726 68.3162 59.9995L70.2634 59.9998L70.4738 59.9949C72.8444 59.886 74.7363 57.9449 74.7363 55.5616V46.8376L74.727 46.6251C74.6536 45.6391 74.1661 44.7375 73.3813 44.1381L66.8176 38.9032L66.6395 38.7697ZM63.0174 40.3618C63.7909 39.8456 64.8304 39.8802 65.5729 40.4687L72.1508 45.7146L72.2683 45.8138C72.5653 46.0902 72.7311 46.4606 72.7364 46.8513L72.7363 55.5616L72.7311 55.7217C72.6475 56.9917 71.5767 57.9998 70.2634 57.9998H68.3394L68.2881 57.9907C68.2049 57.9635 68.1368 57.8782 68.1368 57.781V54.7044L68.1316 54.5451C68.0491 53.2814 66.9915 52.2854 65.7034 52.2854H62.8173L62.6576 52.2915C61.3905 52.3809 60.3935 53.4258 60.3935 54.7045L60.3933 57.5808L60.381 57.6545C60.3766 57.6928 60.3743 57.7317 60.3743 57.7712C60.3743 57.8952 60.2686 57.9998 60.1333 57.9998H58.2092L58.0464 57.9946C56.7546 57.9119 55.7363 56.8521 55.7363 55.5616V46.8471L55.7452 46.7053C55.7887 46.3296 55.9881 45.9775 56.3023 45.7394L62.8756 40.465L63.0174 40.3618Z" fill="#979797"/>
<mask id="mask0_0_409" style="mask-type:luminance" maskUnits="userSpaceOnUse" x="53" y="38" width="22" height="22">
<path fill-rule="evenodd" clip-rule="evenodd" d="M66.6395 38.7697C65.1338 37.701 63.0869 37.7455 61.6286 38.9014L54.912 44.292C54.1837 44.9191 53.7461 45.85 53.7364 46.8372L53.7363 55.5616L53.7412 55.7707C53.8513 58.1268 55.8117 59.9998 58.2092 59.9998H60.1333L60.2931 59.9942C61.3487 59.9202 62.205 59.1183 62.352 58.087L62.3573 58.0298L62.3671 58.0005C62.3844 57.9268 62.3935 57.8501 62.3935 57.7712V54.7044L62.4004 54.63C62.4364 54.4366 62.6103 54.2868 62.824 54.2853L65.7034 54.2854L65.7819 54.2922C65.9853 54.328 66.1368 54.5007 66.1368 54.7044V57.7807L66.1422 57.9369C66.2213 59.0719 67.1589 59.9726 68.3162 59.9995L70.2634 59.9998L70.4738 59.9949C72.8444 59.886 74.7363 57.9449 74.7363 55.5616V46.8376L74.727 46.6251C74.6536 45.6391 74.1661 44.7375 73.3813 44.1381L66.8176 38.9032L66.6395 38.7697ZM63.0174 40.3618C63.7909 39.8456 64.8304 39.8802 65.5729 40.4687L72.1508 45.7146L72.2683 45.8138C72.5653 46.0902 72.7311 46.4606 72.7364 46.8513L72.7363 55.5616L72.7311 55.7217C72.6475 56.9917 71.5767 57.9998 70.2634 57.9998H68.3394L68.2881 57.9907C68.2049 57.9635 68.1368 57.8782 68.1368 57.781V54.7044L68.1316 54.5451C68.0491 53.2814 66.9915 52.2854 65.7034 52.2854H62.8173L62.6576 52.2915C61.3905 52.3809 60.3935 53.4258 60.3935 54.7045L60.3933 57.5808L60.381 57.6545C60.3766 57.6928 60.3743 57.7317 60.3743 57.7712C60.3743 57.8952 60.2686 57.9998 60.1333 57.9998H58.2092L58.0464 57.9946C56.7546 57.9119 55.7363 56.8521 55.7363 55.5616V46.8471L55.7452 46.7053C55.7887 46.3296 55.9881 45.9775 56.3023 45.7394L62.8756 40.465L63.0174 40.3618Z" fill="white"/>
</mask>
<g mask="url(#mask0_0_409)">
<rect x="52.2363" y="37" width="24" height="24" fill="white"/>
</g>

</svg>
