<svg width="66" height="17" viewBox="0 0 66 17" fill="none" xmlns="http://www.w3.org/2000/svg">
<path d="M7.96532 7.6927H5.30635L5.32948 13.7833C5.32948 14.0634 5.36416 14.2734 5.43353 14.4134C5.51061 14.546 5.6262 14.6345 5.78034 14.6787C5.94219 14.7155 6.14645 14.734 6.39307 14.734H8V16.7236C7.84586 16.79 7.60309 16.8526 7.27168 16.9116C6.94798 16.9705 6.49326 17 5.90752 17C4.85935 17 4.04624 16.871 3.46821 16.6131C2.89788 16.3552 2.50097 15.9941 2.27746 15.5298C2.05395 15.0656 1.94219 14.5276 1.94219 13.916V7.6927H0V5.44877H2.05781L2.90174 2H5.30635V5.43773H7.96532V7.6927Z" fill="black"/>
<path fill-rule="evenodd" clip-rule="evenodd" d="M9.18996 16.5866C9.86444 16.8622 10.6243 17 11.4696 17C12.3917 17 13.19 16.8398 13.8645 16.5196C14.5475 16.1992 15.1153 15.622 15.5678 14.7877L15.8751 16.7765H19V8.65364C19 7.90132 18.8164 7.25326 18.4493 6.70951C18.0822 6.15828 17.4888 5.73743 16.6692 5.44694C15.8495 5.14897 14.7609 5 13.4034 5C12.302 5 11.3159 5.13409 10.445 5.40224C9.5827 5.66294 8.89967 6.06517 8.39594 6.60894C7.89219 7.14525 7.61472 7.83055 7.56349 8.6648H10.6756C10.8549 8.1285 11.1878 7.75232 11.6745 7.53632C12.1697 7.3203 12.6905 7.20857 13.2369 7.20111C13.9797 7.19367 14.5262 7.33521 14.8762 7.62571C15.2348 7.90876 15.4141 8.31471 15.4141 8.84358V9.53632L13.762 9.55866C11.4226 9.581 9.71077 9.92366 8.62647 10.5866C7.54214 11.2421 7 12.203 7 13.4693C7 14.2216 7.19636 14.8622 7.5891 15.3911C7.98185 15.9125 8.51548 16.311 9.18996 16.5866ZM13.7108 14.6983C13.3949 14.8026 13.0662 14.8548 12.7247 14.8548C12.1185 14.8548 11.6019 14.7058 11.175 14.4078C10.7481 14.1024 10.5347 13.6816 10.5347 13.1453C10.5347 12.676 10.6969 12.3035 11.0213 12.0279C11.3543 11.7523 11.7898 11.5549 12.3276 11.4357C12.8655 11.3091 13.4461 11.2421 14.0694 11.2346L15.4141 11.2123V12.9218C15.4141 13.1676 15.3372 13.406 15.1836 13.6369C15.0299 13.8678 14.825 14.0763 14.5688 14.2626C14.3212 14.4413 14.0352 14.5866 13.7108 14.6983Z" fill="black"/>
<path d="M24.6833 17C23.8033 17 22.9559 16.8696 22.141 16.6089C21.3263 16.3408 20.6377 15.9236 20.0755 15.3575C19.5132 14.784 19.1547 14.0428 19 13.1341H22.0922C22.198 13.5438 22.3896 13.8678 22.6666 14.1061C22.9519 14.3445 23.2737 14.5158 23.6322 14.6201C23.9907 14.7169 24.3329 14.7654 24.6588 14.7654C25.3433 14.7654 25.8932 14.6685 26.3089 14.4749C26.7326 14.2737 26.9443 13.9684 26.9443 13.5587C26.9443 13.2458 26.8182 12.9963 26.5656 12.8101C26.321 12.6238 25.9137 12.4823 25.3433 12.3855L23.1188 11.9609C22.0025 11.7449 21.1063 11.3799 20.4299 10.8659C19.7537 10.3445 19.4074 9.60709 19.3911 8.65364C19.3911 7.9609 19.5907 7.33893 19.9899 6.78772C20.3973 6.23651 20.9962 5.80075 21.7866 5.48046C22.577 5.16015 23.5466 5 24.6955 5C26.2519 5 27.4944 5.31285 28.4233 5.93854C29.3603 6.56426 29.837 7.44694 29.8534 8.5866H26.8711C26.7815 8.13968 26.537 7.79703 26.1377 7.55867C25.7466 7.31284 25.2537 7.18995 24.6588 7.18995C24.0395 7.18995 23.5304 7.2905 23.1311 7.49162C22.7319 7.69274 22.5322 7.99814 22.5322 8.40782C22.5322 8.71323 22.6952 8.95531 23.021 9.13408C23.3471 9.3054 23.8522 9.45437 24.5367 9.581L26.5899 10.0056C27.2988 10.162 27.8734 10.378 28.3134 10.6536C28.7615 10.9218 29.1078 11.216 29.3522 11.5363C29.5967 11.8566 29.7638 12.1806 29.8534 12.5084C29.9511 12.8287 30 13.1192 30 13.3799C30 14.1471 29.7759 14.8026 29.3278 15.3464C28.8795 15.8827 28.2562 16.2924 27.4577 16.5754C26.6592 16.8585 25.7344 17 24.6833 17Z" fill="black"/>
<path d="M42 17H38.5046L35.1532 12.1979L33.5075 13.7699V17H30V1H33.5075V10.4859L38.0722 5.86676H41.844L37.3273 10.3028L42 17Z" fill="black"/>
<path d="M46 5V17H42V5H46Z" fill="black"/>
<path fill-rule="evenodd" clip-rule="evenodd" d="M56.5556 7.55556V0H49V7.55556H56.5556ZM56.5556 17V9.44444H49V17H56.5556ZM66 9.44444V17H58.4444V9.44444H66Z" fill="#7EBB4F"/>
</svg>
